<mxfile host="Electron" modified="2023-08-21T01:51:50.731Z" agent="Mozilla/5.0 (Windows NT 10.0; Win64; x64) AppleWebKit/537.36 (KHTML, like Gecko) draw.io/21.6.5 Chrome/114.0.5735.243 Electron/25.3.1 Safari/537.36" etag="WpIMDKO28ZDqhGPEwXO_" version="21.6.5" type="device">
  <diagram id="R2lEEEUBdFMjLlhIrx00" name="Page-1">
    <mxGraphModel dx="880" dy="524" grid="1" gridSize="10" guides="1" tooltips="1" connect="1" arrows="1" fold="1" page="1" pageScale="1" pageWidth="850" pageHeight="1100" math="0" shadow="0" extFonts="Permanent Marker^https://fonts.googleapis.com/css?family=Permanent+Marker">
      <root>
        <mxCell id="0" />
        <mxCell id="1" parent="0" />
        <mxCell id="5n9DnabvHOIzad0tQ0xk-1" value="&lt;b&gt;JESÚS ALBERTO DOMÍNGUEZ CHARRIS&lt;/b&gt;" style="text;html=1;align=center;verticalAlign=middle;resizable=0;points=[];autosize=1;strokeColor=none;fillColor=none;" parent="1" vertex="1">
          <mxGeometry x="570" y="30" width="260" height="30" as="geometry" />
        </mxCell>
        <mxCell id="WU8Xq_cLeQHDQ70CtlRt-14" value="&lt;b&gt;BASES DE DATOS / #63487 / UNIDAD 1&lt;/b&gt;" style="text;html=1;align=center;verticalAlign=middle;resizable=0;points=[];autosize=1;strokeColor=none;fillColor=none;" parent="1" vertex="1">
          <mxGeometry x="40" y="30" width="250" height="30" as="geometry" />
        </mxCell>
        <mxCell id="UZGF_epL0NdCKsmeIKuI-1" value="Artista" style="whiteSpace=wrap;html=1;align=center;" vertex="1" parent="1">
          <mxGeometry x="185" y="250" width="100" height="40" as="geometry" />
        </mxCell>
        <mxCell id="UZGF_epL0NdCKsmeIKuI-7" style="edgeStyle=orthogonalEdgeStyle;rounded=0;orthogonalLoop=1;jettySize=auto;html=1;exitX=0.5;exitY=0;exitDx=0;exitDy=0;entryX=0.5;entryY=1;entryDx=0;entryDy=0;endArrow=none;endFill=0;" edge="1" parent="1" source="UZGF_epL0NdCKsmeIKuI-2" target="UZGF_epL0NdCKsmeIKuI-5">
          <mxGeometry relative="1" as="geometry" />
        </mxCell>
        <mxCell id="UZGF_epL0NdCKsmeIKuI-12" style="edgeStyle=orthogonalEdgeStyle;rounded=0;orthogonalLoop=1;jettySize=auto;html=1;exitX=1;exitY=0.5;exitDx=0;exitDy=0;entryX=0;entryY=0.5;entryDx=0;entryDy=0;endArrow=none;endFill=0;" edge="1" parent="1" source="UZGF_epL0NdCKsmeIKuI-2" target="UZGF_epL0NdCKsmeIKuI-11">
          <mxGeometry relative="1" as="geometry" />
        </mxCell>
        <mxCell id="UZGF_epL0NdCKsmeIKuI-2" value="Obra" style="whiteSpace=wrap;html=1;align=center;" vertex="1" parent="1">
          <mxGeometry x="185" y="470" width="100" height="40" as="geometry" />
        </mxCell>
        <mxCell id="UZGF_epL0NdCKsmeIKuI-10" style="edgeStyle=orthogonalEdgeStyle;rounded=0;orthogonalLoop=1;jettySize=auto;html=1;exitX=0.5;exitY=0;exitDx=0;exitDy=0;entryX=0.5;entryY=1;entryDx=0;entryDy=0;endArrow=none;endFill=0;" edge="1" parent="1" source="UZGF_epL0NdCKsmeIKuI-3" target="UZGF_epL0NdCKsmeIKuI-8">
          <mxGeometry relative="1" as="geometry" />
        </mxCell>
        <mxCell id="UZGF_epL0NdCKsmeIKuI-3" value="Grupo" style="whiteSpace=wrap;html=1;align=center;" vertex="1" parent="1">
          <mxGeometry x="605" y="470" width="100" height="40" as="geometry" />
        </mxCell>
        <mxCell id="UZGF_epL0NdCKsmeIKuI-15" style="edgeStyle=orthogonalEdgeStyle;rounded=0;orthogonalLoop=1;jettySize=auto;html=1;exitX=0;exitY=0.5;exitDx=0;exitDy=0;entryX=1;entryY=0.5;entryDx=0;entryDy=0;endArrow=none;endFill=0;" edge="1" parent="1" source="UZGF_epL0NdCKsmeIKuI-4" target="UZGF_epL0NdCKsmeIKuI-14">
          <mxGeometry relative="1" as="geometry" />
        </mxCell>
        <mxCell id="UZGF_epL0NdCKsmeIKuI-4" value="Clientes" style="whiteSpace=wrap;html=1;align=center;" vertex="1" parent="1">
          <mxGeometry x="605" y="250" width="100" height="40" as="geometry" />
        </mxCell>
        <mxCell id="UZGF_epL0NdCKsmeIKuI-6" style="edgeStyle=orthogonalEdgeStyle;rounded=0;orthogonalLoop=1;jettySize=auto;html=1;exitX=0.5;exitY=0;exitDx=0;exitDy=0;entryX=0.5;entryY=1;entryDx=0;entryDy=0;" edge="1" parent="1" source="UZGF_epL0NdCKsmeIKuI-5" target="UZGF_epL0NdCKsmeIKuI-1">
          <mxGeometry relative="1" as="geometry" />
        </mxCell>
        <mxCell id="UZGF_epL0NdCKsmeIKuI-5" value="Crea" style="shape=rhombus;perimeter=rhombusPerimeter;whiteSpace=wrap;html=1;align=center;" vertex="1" parent="1">
          <mxGeometry x="175" y="350" width="120" height="60" as="geometry" />
        </mxCell>
        <mxCell id="UZGF_epL0NdCKsmeIKuI-9" style="edgeStyle=orthogonalEdgeStyle;rounded=0;orthogonalLoop=1;jettySize=auto;html=1;exitX=0.5;exitY=0;exitDx=0;exitDy=0;entryX=0.5;entryY=1;entryDx=0;entryDy=0;endArrow=none;endFill=0;" edge="1" parent="1" source="UZGF_epL0NdCKsmeIKuI-8" target="UZGF_epL0NdCKsmeIKuI-4">
          <mxGeometry relative="1" as="geometry" />
        </mxCell>
        <mxCell id="UZGF_epL0NdCKsmeIKuI-8" value="Prefiere" style="shape=rhombus;perimeter=rhombusPerimeter;whiteSpace=wrap;html=1;align=center;" vertex="1" parent="1">
          <mxGeometry x="595" y="350" width="120" height="60" as="geometry" />
        </mxCell>
        <mxCell id="UZGF_epL0NdCKsmeIKuI-13" style="edgeStyle=orthogonalEdgeStyle;rounded=0;orthogonalLoop=1;jettySize=auto;html=1;exitX=1;exitY=0.5;exitDx=0;exitDy=0;entryX=0;entryY=0.5;entryDx=0;entryDy=0;endArrow=none;endFill=0;" edge="1" parent="1" source="UZGF_epL0NdCKsmeIKuI-11" target="UZGF_epL0NdCKsmeIKuI-3">
          <mxGeometry relative="1" as="geometry" />
        </mxCell>
        <mxCell id="UZGF_epL0NdCKsmeIKuI-11" value="Produce" style="shape=rhombus;perimeter=rhombusPerimeter;whiteSpace=wrap;html=1;align=center;" vertex="1" parent="1">
          <mxGeometry x="385" y="460" width="120" height="60" as="geometry" />
        </mxCell>
        <mxCell id="UZGF_epL0NdCKsmeIKuI-16" style="edgeStyle=orthogonalEdgeStyle;rounded=0;orthogonalLoop=1;jettySize=auto;html=1;exitX=0;exitY=0.5;exitDx=0;exitDy=0;entryX=1;entryY=0.5;entryDx=0;entryDy=0;endArrow=none;endFill=0;" edge="1" parent="1" source="UZGF_epL0NdCKsmeIKuI-14" target="UZGF_epL0NdCKsmeIKuI-1">
          <mxGeometry relative="1" as="geometry" />
        </mxCell>
        <mxCell id="UZGF_epL0NdCKsmeIKuI-14" value="Prefiere" style="shape=rhombus;perimeter=rhombusPerimeter;whiteSpace=wrap;html=1;align=center;" vertex="1" parent="1">
          <mxGeometry x="385" y="240" width="120" height="60" as="geometry" />
        </mxCell>
        <mxCell id="UZGF_epL0NdCKsmeIKuI-21" style="edgeStyle=orthogonalEdgeStyle;rounded=0;orthogonalLoop=1;jettySize=auto;html=1;exitX=0.5;exitY=1;exitDx=0;exitDy=0;entryX=0.5;entryY=0;entryDx=0;entryDy=0;endArrow=none;endFill=0;" edge="1" parent="1" source="UZGF_epL0NdCKsmeIKuI-18" target="UZGF_epL0NdCKsmeIKuI-4">
          <mxGeometry relative="1" as="geometry" />
        </mxCell>
        <mxCell id="UZGF_epL0NdCKsmeIKuI-18" value="Nombre" style="ellipse;whiteSpace=wrap;html=1;align=center;fontStyle=4;" vertex="1" parent="1">
          <mxGeometry x="605" y="170" width="100" height="40" as="geometry" />
        </mxCell>
        <mxCell id="UZGF_epL0NdCKsmeIKuI-24" style="rounded=0;orthogonalLoop=1;jettySize=auto;html=1;exitX=0;exitY=1;exitDx=0;exitDy=0;entryX=1;entryY=0;entryDx=0;entryDy=0;endArrow=none;endFill=0;" edge="1" parent="1" source="UZGF_epL0NdCKsmeIKuI-19" target="UZGF_epL0NdCKsmeIKuI-4">
          <mxGeometry relative="1" as="geometry" />
        </mxCell>
        <mxCell id="UZGF_epL0NdCKsmeIKuI-19" value="Dirección" style="ellipse;whiteSpace=wrap;html=1;align=center;" vertex="1" parent="1">
          <mxGeometry x="720" y="180" width="100" height="40" as="geometry" />
        </mxCell>
        <mxCell id="UZGF_epL0NdCKsmeIKuI-23" style="edgeStyle=orthogonalEdgeStyle;rounded=0;orthogonalLoop=1;jettySize=auto;html=1;exitX=0;exitY=0.5;exitDx=0;exitDy=0;entryX=1;entryY=0.5;entryDx=0;entryDy=0;endArrow=none;endFill=0;" edge="1" parent="1" source="UZGF_epL0NdCKsmeIKuI-20" target="UZGF_epL0NdCKsmeIKuI-4">
          <mxGeometry relative="1" as="geometry" />
        </mxCell>
        <mxCell id="UZGF_epL0NdCKsmeIKuI-20" value="Inversión" style="ellipse;whiteSpace=wrap;html=1;align=center;" vertex="1" parent="1">
          <mxGeometry x="730" y="250" width="100" height="40" as="geometry" />
        </mxCell>
        <mxCell id="UZGF_epL0NdCKsmeIKuI-26" style="edgeStyle=orthogonalEdgeStyle;rounded=0;orthogonalLoop=1;jettySize=auto;html=1;exitX=0.5;exitY=0;exitDx=0;exitDy=0;entryX=0.5;entryY=1;entryDx=0;entryDy=0;endArrow=none;endFill=0;" edge="1" parent="1" source="UZGF_epL0NdCKsmeIKuI-25" target="UZGF_epL0NdCKsmeIKuI-3">
          <mxGeometry relative="1" as="geometry" />
        </mxCell>
        <mxCell id="UZGF_epL0NdCKsmeIKuI-25" value="Nombre" style="ellipse;whiteSpace=wrap;html=1;align=center;fontStyle=4;" vertex="1" parent="1">
          <mxGeometry x="605" y="550" width="100" height="40" as="geometry" />
        </mxCell>
        <mxCell id="UZGF_epL0NdCKsmeIKuI-31" style="rounded=0;orthogonalLoop=1;jettySize=auto;html=1;exitX=1;exitY=0;exitDx=0;exitDy=0;entryX=0;entryY=1;entryDx=0;entryDy=0;endArrow=none;endFill=0;" edge="1" parent="1" source="UZGF_epL0NdCKsmeIKuI-27" target="UZGF_epL0NdCKsmeIKuI-2">
          <mxGeometry relative="1" as="geometry" />
        </mxCell>
        <mxCell id="UZGF_epL0NdCKsmeIKuI-27" value="Año" style="ellipse;whiteSpace=wrap;html=1;align=center;" vertex="1" parent="1">
          <mxGeometry x="50" y="540" width="100" height="40" as="geometry" />
        </mxCell>
        <mxCell id="UZGF_epL0NdCKsmeIKuI-33" style="rounded=0;orthogonalLoop=1;jettySize=auto;html=1;exitX=0.5;exitY=0;exitDx=0;exitDy=0;entryX=0.25;entryY=1;entryDx=0;entryDy=0;endArrow=none;endFill=0;" edge="1" parent="1" source="UZGF_epL0NdCKsmeIKuI-28" target="UZGF_epL0NdCKsmeIKuI-2">
          <mxGeometry relative="1" as="geometry" />
        </mxCell>
        <mxCell id="UZGF_epL0NdCKsmeIKuI-28" value="Título" style="ellipse;whiteSpace=wrap;html=1;align=center;fontStyle=4;" vertex="1" parent="1">
          <mxGeometry x="120" y="600" width="100" height="40" as="geometry" />
        </mxCell>
        <mxCell id="UZGF_epL0NdCKsmeIKuI-34" style="rounded=0;orthogonalLoop=1;jettySize=auto;html=1;exitX=0.5;exitY=0;exitDx=0;exitDy=0;entryX=0.75;entryY=1;entryDx=0;entryDy=0;endArrow=none;endFill=0;" edge="1" parent="1" source="UZGF_epL0NdCKsmeIKuI-29" target="UZGF_epL0NdCKsmeIKuI-2">
          <mxGeometry relative="1" as="geometry" />
        </mxCell>
        <mxCell id="UZGF_epL0NdCKsmeIKuI-29" value="Tipo arte" style="ellipse;whiteSpace=wrap;html=1;align=center;" vertex="1" parent="1">
          <mxGeometry x="240" y="600" width="100" height="40" as="geometry" />
        </mxCell>
        <mxCell id="UZGF_epL0NdCKsmeIKuI-32" style="rounded=0;orthogonalLoop=1;jettySize=auto;html=1;exitX=0;exitY=0;exitDx=0;exitDy=0;entryX=1;entryY=1;entryDx=0;entryDy=0;endArrow=none;endFill=0;" edge="1" parent="1" source="UZGF_epL0NdCKsmeIKuI-30" target="UZGF_epL0NdCKsmeIKuI-2">
          <mxGeometry relative="1" as="geometry" />
        </mxCell>
        <mxCell id="UZGF_epL0NdCKsmeIKuI-30" value="Precio" style="ellipse;whiteSpace=wrap;html=1;align=center;" vertex="1" parent="1">
          <mxGeometry x="300" y="540" width="100" height="40" as="geometry" />
        </mxCell>
        <mxCell id="UZGF_epL0NdCKsmeIKuI-40" style="rounded=0;orthogonalLoop=1;jettySize=auto;html=1;exitX=1;exitY=1;exitDx=0;exitDy=0;entryX=0;entryY=0.25;entryDx=0;entryDy=0;endArrow=none;endFill=0;" edge="1" parent="1" source="UZGF_epL0NdCKsmeIKuI-35" target="UZGF_epL0NdCKsmeIKuI-1">
          <mxGeometry relative="1" as="geometry" />
        </mxCell>
        <mxCell id="UZGF_epL0NdCKsmeIKuI-35" value="Nombre" style="ellipse;whiteSpace=wrap;html=1;align=center;fontStyle=4;" vertex="1" parent="1">
          <mxGeometry x="50" y="210" width="100" height="40" as="geometry" />
        </mxCell>
        <mxCell id="UZGF_epL0NdCKsmeIKuI-41" style="rounded=0;orthogonalLoop=1;jettySize=auto;html=1;exitX=0.5;exitY=1;exitDx=0;exitDy=0;entryX=0.25;entryY=0;entryDx=0;entryDy=0;endArrow=none;endFill=0;" edge="1" parent="1" source="UZGF_epL0NdCKsmeIKuI-36" target="UZGF_epL0NdCKsmeIKuI-1">
          <mxGeometry relative="1" as="geometry" />
        </mxCell>
        <mxCell id="UZGF_epL0NdCKsmeIKuI-36" value="Lugar nacimiento" style="ellipse;whiteSpace=wrap;html=1;align=center;" vertex="1" parent="1">
          <mxGeometry x="100" y="130" width="100" height="40" as="geometry" />
        </mxCell>
        <mxCell id="UZGF_epL0NdCKsmeIKuI-42" style="rounded=0;orthogonalLoop=1;jettySize=auto;html=1;exitX=0;exitY=1;exitDx=0;exitDy=0;entryX=0.5;entryY=0;entryDx=0;entryDy=0;endArrow=none;endFill=0;" edge="1" parent="1" source="UZGF_epL0NdCKsmeIKuI-37" target="UZGF_epL0NdCKsmeIKuI-1">
          <mxGeometry relative="1" as="geometry" />
        </mxCell>
        <mxCell id="UZGF_epL0NdCKsmeIKuI-37" value="Fecha nacimiento" style="ellipse;whiteSpace=wrap;html=1;align=center;" vertex="1" parent="1">
          <mxGeometry x="250" y="130" width="100" height="40" as="geometry" />
        </mxCell>
        <mxCell id="UZGF_epL0NdCKsmeIKuI-44" style="rounded=0;orthogonalLoop=1;jettySize=auto;html=1;exitX=0;exitY=0.5;exitDx=0;exitDy=0;entryX=1;entryY=0;entryDx=0;entryDy=0;endArrow=none;endFill=0;" edge="1" parent="1" source="UZGF_epL0NdCKsmeIKuI-38" target="UZGF_epL0NdCKsmeIKuI-37">
          <mxGeometry relative="1" as="geometry" />
        </mxCell>
        <mxCell id="UZGF_epL0NdCKsmeIKuI-38" value="Edad" style="ellipse;whiteSpace=wrap;html=1;align=center;dashed=1;" vertex="1" parent="1">
          <mxGeometry x="385" y="90" width="100" height="40" as="geometry" />
        </mxCell>
        <mxCell id="UZGF_epL0NdCKsmeIKuI-43" style="rounded=0;orthogonalLoop=1;jettySize=auto;html=1;exitX=0;exitY=0.5;exitDx=0;exitDy=0;entryX=0.75;entryY=0;entryDx=0;entryDy=0;endArrow=none;endFill=0;" edge="1" parent="1" source="UZGF_epL0NdCKsmeIKuI-39" target="UZGF_epL0NdCKsmeIKuI-1">
          <mxGeometry relative="1" as="geometry" />
        </mxCell>
        <mxCell id="UZGF_epL0NdCKsmeIKuI-39" value="Estilo" style="ellipse;whiteSpace=wrap;html=1;align=center;" vertex="1" parent="1">
          <mxGeometry x="310" y="190" width="100" height="40" as="geometry" />
        </mxCell>
      </root>
    </mxGraphModel>
  </diagram>
</mxfile>
